# xmcd
#
# Track frame offsets:
# 180
# 14648
# 31160
# 53442
# 74502
# 98492
# 118915
# 137607
# 158106
# 180650
# 197488
# 229351
#
# Disc length: 3470 seconds
#
# Revision: 0
# Processed by: cddbd v1.5PL3 Copyright (c) Steve Scherf et al.
# Submitted via: Audion 3.0.2 (http://www.panic.com/audion/)
#
DISCID=9c0d8c0c
DTITLE=Bullmoose - Lessons Learned
DYEAR=1900
DGENRE=
TTITLE0=Young Blood Blues
TTITLE1=Pray
TTITLE2=Shades of Green
TTITLE3=Poor Mans Hash
TTITLE4=Lessons Learned
TTITLE5=Dont Wanna Fight
TTITLE6=We'll Take Your Questions Now
TTITLE7=Needs
TTITLE8=Testify
TTITLE9=Daily Dillema
TTITLE10=Hypoxia
TTITLE11=Quebecois Blonde
EXTD=
EXTT0=
EXTT1=
EXTT2=
EXTT3=
EXTT4=
EXTT5=
EXTT6=
EXTT7=
EXTT8=
EXTT9=
EXTT10=
EXTT11=
PLAYORDER=
